<svg width="47" height="32" viewBox="0 0 47 32" fill="none" xmlns="http://www.w3.org/2000/svg">
<path d="M19.2463 31.9388C17.9699 32.1419 16.6646 31.8364 15.6117 31.0881C14.5588 30.3397 13.8426 29.2085 13.6174 27.938L9.8281 5.68102C9.62458 4.40694 9.93065 3.10404 10.6804 2.05307C11.4301 1.0021 12.5634 0.287179 13.8362 0.0623622C15.1126 -0.140788 16.4179 0.164723 17.4708 0.913065C18.5237 1.66141 19.2399 2.79268 19.4652 4.06312L23.2544 26.3233C23.457 27.5969 23.1505 28.899 22.4009 29.9492C21.6513 30.9995 20.5184 31.7139 19.2463 31.9388Z" fill="#0856DB"/>
<path d="M19.2463 31.9388C17.9699 32.1419 16.6646 31.8364 15.6117 31.0881C14.5588 30.3397 13.8426 29.2085 13.6174 27.938L9.8281 5.68102C9.62458 4.40694 9.93065 3.10404 10.6804 2.05307C11.4301 1.0021 12.5634 0.287179 13.8362 0.0623622C15.1126 -0.140788 16.4179 0.164723 17.4708 0.913065C18.5237 1.66141 19.2399 2.79268 19.4652 4.06312L23.2544 26.3233C23.457 27.5969 23.1505 28.899 22.4009 29.9492C21.6513 30.9995 20.5184 31.7139 19.2463 31.9388Z" fill="black" fill-opacity="0.2"/>
<path d="M32.8314 31.9386C31.555 32.1417 30.2497 31.8362 29.1968 31.0879C28.1439 30.3395 27.4277 29.2083 27.2025 27.9378L23.414 5.68084C23.3019 5.05271 23.3153 4.40867 23.4535 3.78573C23.5916 3.1628 23.8518 2.57327 24.219 2.05104C24.5862 1.52881 25.0532 1.08418 25.5931 0.742727C26.133 0.401269 26.7353 0.169718 27.3652 0.0613856C28.6416 -0.141765 29.9469 0.163746 30.9998 0.912088C32.0527 1.66043 32.7689 2.7917 32.9942 4.06214L36.7834 26.3223C36.895 26.9503 36.8812 27.5941 36.7428 28.2167C36.6044 28.8393 36.3441 29.4284 35.9768 29.9503C35.6096 30.4722 35.1427 30.9165 34.6029 31.2577C34.0631 31.5989 33.4611 31.8303 32.8314 31.9386Z" fill="#0856DB"/>
<path d="M32.8314 31.9386C31.555 32.1417 30.2497 31.8362 29.1968 31.0879C28.1439 30.3395 27.4277 29.2083 27.2025 27.9378L23.414 5.68084C23.3019 5.05271 23.3153 4.40867 23.4535 3.78573C23.5916 3.1628 23.8518 2.57327 24.219 2.05104C24.5862 1.52881 25.0532 1.08418 25.5931 0.742727C26.133 0.401269 26.7353 0.169718 27.3652 0.0613856C28.6416 -0.141765 29.9469 0.163746 30.9998 0.912088C32.0527 1.66043 32.7689 2.7917 32.9942 4.06214L36.7834 26.3223C36.895 26.9503 36.8812 27.5941 36.7428 28.2167C36.6044 28.8393 36.3441 29.4284 35.9768 29.9503C35.6096 30.4722 35.1427 30.9165 34.6029 31.2577C34.0631 31.5989 33.4611 31.8303 32.8314 31.9386Z" fill="black" fill-opacity="0.2"/>
<path d="M2.90007 31.5602C1.71991 31.0324 0.796254 30.0609 0.329987 28.8569C-0.13628 27.6529 -0.107438 26.3139 0.410239 25.131L10.2068 2.9252C10.7356 1.74701 11.709 0.824888 12.9154 0.35946C14.1218 -0.105968 15.4635 -0.077047 16.6486 0.439931C17.8288 0.967696 18.7524 1.93923 19.2187 3.14322C19.685 4.34721 19.6561 5.68627 19.1385 6.86914L9.28656 29.0749C9.03391 29.6593 8.66753 30.1878 8.20868 30.6298C7.74983 31.0717 7.20764 31.4183 6.61355 31.6495C6.01945 31.8807 5.38529 31.9919 4.74783 31.9765C4.11037 31.9612 3.48231 31.8197 2.90007 31.5602Z" fill="#0856DB"/>
<path d="M16.4323 31.5602C15.2521 31.0324 14.3285 30.0609 13.8622 28.8569C13.3959 27.6529 13.4248 26.3138 13.9425 25.131L23.739 2.9252C24.2678 1.74701 25.2412 0.824888 26.4476 0.35946C27.654 -0.105968 28.9957 -0.077047 30.1809 0.439931C31.361 0.967696 32.2847 1.93923 32.7509 3.14322C33.2172 4.34721 33.1884 5.68627 32.6707 6.86914L22.8733 29.0749C22.3469 30.2549 21.3737 31.1788 20.1667 31.6446C18.9597 32.1103 17.617 32.08 16.4323 31.5602Z" fill="#0856DB"/>
<path d="M29.9645 31.56C28.7844 31.0322 27.8607 30.0607 27.3944 28.8567C26.9282 27.6527 26.957 26.3137 27.4747 25.1308L37.3258 2.92503C37.8545 1.74704 38.8278 0.825068 40.034 0.359656C41.2402 -0.105757 42.5817 -0.076968 43.7668 0.439761C44.9469 0.967526 45.8706 1.93906 46.3369 3.14305C46.8031 4.34704 46.7743 5.68609 46.2566 6.86897L36.4055 29.0747C36.1485 29.6621 35.7774 30.1927 35.3138 30.6361C34.8501 31.0794 34.303 31.4266 33.7041 31.6577C33.1052 31.8888 32.4664 31.9992 31.8245 31.9824C31.1827 31.9656 30.5505 31.8221 29.9645 31.56Z" fill="#0856DB"/>
</svg>
