<svg width="154" height="22" viewBox="0 0 154 22" fill="none" xmlns="http://www.w3.org/2000/svg">
<path fill-rule="evenodd" clip-rule="evenodd" d="M3.89317 20.9867H0.666504V1.04003H3.78353L10.1998 16.7072L16.6161 1.04003H19.7865V20.9867H16.5598V10.7067C16.5598 10.0639 16.5688 9.5083 16.5867 9.04055C16.5902 8.94959 16.5937 8.86067 16.5972 8.77379L11.6511 20.9867H8.74846L3.83803 8.85092C3.83862 8.87955 3.83918 8.90839 3.83972 8.93744C3.8754 9.90221 3.89317 11.0611 3.89317 12.4134V20.9867ZM3.37317 6.81336C3.41701 7.0983 3.45071 7.47783 3.47428 7.95194C3.48894 8.24691 3.49968 8.5785 3.5065 8.94669C3.54206 9.90669 3.55984 11.0623 3.55984 12.4134V20.6534H0.999837V1.37336H3.55984L10.1998 17.5867L16.8398 1.37336H19.4532V20.6534H16.8932V10.7067C16.8932 10.0667 16.9021 9.51558 16.9198 9.05336C16.9373 8.60044 16.9547 8.19872 16.9721 7.84822C16.9724 7.84102 16.9728 7.83385 16.9732 7.82669C16.9909 7.45336 17.0176 7.09781 17.0532 6.76003L11.4265 20.6534H8.97317L3.37317 6.81336ZM26.0445 20.9867H22.6126L29.8961 1.04003H33.2687L40.5797 20.9867H37.1218L35.3885 16.1867H27.7511L26.0445 20.9867ZM27.5159 15.8534H31.5692H35.6225L37.3559 20.6534H40.1025L33.0359 1.37336H30.1292L23.0892 20.6534H25.8092L27.5159 15.8534ZM31.5624 5.64744L28.792 13.2534H34.3715L31.5714 5.6349L31.5695 5.62791C31.5671 5.63437 31.5647 5.64099 31.5624 5.64744ZM31.3973 5.08281C31.4001 5.07343 31.4028 5.06408 31.4055 5.0547C31.4065 5.05138 31.4074 5.04806 31.4084 5.04474C31.4178 5.01206 31.4269 4.97938 31.4359 4.94669L31.5692 4.41336C31.587 4.55558 31.6314 4.73336 31.7025 4.94669C31.7114 4.9711 31.7201 4.99551 31.7287 5.01991L31.7313 5.02727C31.7366 5.0423 31.7418 5.05732 31.747 5.07235C31.7999 5.22602 31.8473 5.37969 31.8892 5.53336L34.8492 13.5867H28.3159L31.2492 5.53336C31.3038 5.38318 31.3532 5.23299 31.3973 5.08281ZM49.0044 12.8134V20.6534H46.3911V12.8134L39.8577 1.37336H42.7911L47.0844 9.08003C47.2088 9.31114 47.3155 9.52447 47.4044 9.72003C47.4505 9.80459 47.4967 9.89248 47.5428 9.98369C47.6033 10.1034 47.6639 10.2289 47.7244 10.36C47.8107 10.2047 47.8719 10.0745 47.9079 9.96938C47.909 9.96624 47.91 9.96312 47.9111 9.96003L48.0711 9.58669C48.1422 9.46225 48.24 9.29336 48.3644 9.08003L52.6311 1.37336H55.4844L49.0044 12.8134ZM48.0746 8.91532L52.4346 1.04003H56.0563L49.3377 12.9012V20.9867H46.0577V12.9018L39.2835 1.04003H42.9869L47.3779 8.92198C47.5028 9.15404 47.6113 9.37048 47.7028 9.57104C47.7051 9.57526 47.7074 9.57948 47.7097 9.5837L47.7722 9.43787L47.7817 9.42131C47.8531 9.29625 47.9508 9.12747 48.0746 8.91532ZM62.0163 20.9867H58.7363V1.04003H61.8621L71.2163 15.1773V1.04003H74.4963V20.9867H71.3705L62.0163 6.84937V20.9867ZM61.6829 5.74152V20.6534H59.0696V1.37336H61.6829L71.5496 16.2852V1.37336H74.1629V20.6534H71.5496L61.6829 5.74152ZM92.7983 20.0055C91.3531 20.8763 89.6832 21.3067 87.7996 21.3067C85.9501 21.3067 84.2902 20.8757 82.8292 20.0065L82.8249 20.0039C81.3853 19.118 80.26 17.8992 79.451 16.3547C78.6398 14.8061 78.2396 13.018 78.2396 11C78.2396 8.99925 78.64 7.2202 79.451 5.67202L79.4524 5.66928C80.2791 4.1262 81.4126 2.90831 82.8516 2.02281C84.2966 1.13356 85.9585 0.693359 87.8263 0.693359C89.7112 0.693359 91.3821 1.13324 92.8276 2.02281C94.2669 2.90853 95.392 4.12699 96.201 5.67102C97.0301 7.21936 97.4396 8.99883 97.4396 11C97.4396 13.0017 97.0299 14.7897 96.2012 16.3552C95.3917 17.9006 94.2558 19.12 92.7983 20.0055ZM95.9063 5.82669C95.124 4.33336 94.0396 3.16003 92.6529 2.30669C91.2663 1.45336 89.6574 1.02669 87.8263 1.02669C86.0129 1.02669 84.4129 1.45336 83.0263 2.30669C81.6396 3.16003 80.5463 4.33336 79.7463 5.82669C78.964 7.32003 78.5729 9.04447 78.5729 11C78.5729 12.9734 78.964 14.7067 79.7463 16.2C80.5285 17.6934 81.6129 18.8667 82.9996 19.72C84.404 20.5556 86.004 20.9734 87.7996 20.9734C89.6307 20.9734 91.2396 20.5556 92.6262 19.72C94.0307 18.8667 95.124 17.6934 95.9063 16.2C96.7063 14.6889 97.1062 12.9556 97.1062 11C97.1062 9.04447 96.7063 7.32003 95.9063 5.82669ZM93.2338 7.2272L93.2319 7.22335C92.7239 6.15641 92.0099 5.34497 91.091 4.77689L91.0873 4.77461C90.17 4.19083 89.0872 3.89336 87.8263 3.89336C86.584 3.89336 85.5099 4.19037 84.5919 4.77458L84.5882 4.77692C83.6688 5.34526 82.9454 6.15742 82.4196 7.22533C81.9121 8.29194 81.6529 9.54722 81.6529 11C81.6529 12.4528 81.9121 13.7081 82.4196 14.7747C82.9458 15.8433 83.6702 16.6656 84.5919 17.2521C85.5099 17.8364 86.584 18.1334 87.8263 18.1334C89.0863 18.1334 90.1684 17.8363 91.0852 17.2535C92.0079 16.6491 92.7235 15.8178 93.232 14.7501L93.2338 14.7462C93.7587 13.6796 94.0263 12.4338 94.0263 11C94.0263 9.54781 93.7584 8.29327 93.2338 7.2272ZM91.2663 17.5334C92.244 16.8934 92.9996 16.0134 93.5329 14.8934C94.084 13.7734 94.3596 12.4756 94.3596 11C94.3596 9.50669 94.084 8.20003 93.5329 7.08003C92.9996 5.96003 92.244 5.09781 91.2663 4.49336C90.2885 3.87114 89.1418 3.56003 87.8263 3.56003C86.5285 3.56003 85.3907 3.87114 84.4129 4.49336C83.4352 5.09781 82.6707 5.96003 82.1196 7.08003C81.5863 8.20003 81.3196 9.50669 81.3196 11C81.3196 12.4934 81.5863 13.8 82.1196 14.92C82.6707 16.04 83.4352 16.9111 84.4129 17.5334C85.3907 18.1556 86.5285 18.4667 87.8263 18.4667C89.1418 18.4667 90.2885 18.1556 91.2663 17.5334ZM114.594 20.0055C113.149 20.8763 111.479 21.3067 109.595 21.3067C107.746 21.3067 106.086 20.8757 104.625 20.0065L104.621 20.0039C103.181 19.118 102.056 17.8992 101.247 16.3547C100.436 14.8061 100.035 13.018 100.035 11C100.035 8.99925 100.436 7.2202 101.247 5.67202L101.248 5.66928C102.075 4.1262 103.208 2.90831 104.647 2.02281C106.092 1.13356 107.754 0.693359 109.622 0.693359C111.507 0.693359 113.178 1.13324 114.623 2.02281C116.063 2.90846 117.188 4.1268 117.997 5.67065C118.826 7.21908 119.235 8.99867 119.235 11C119.235 13.0018 118.826 14.7897 117.997 16.3552C117.187 17.9006 116.052 19.12 114.594 20.0055ZM115.03 7.2272L115.028 7.22335C114.52 6.15641 113.806 5.34497 112.887 4.77689L112.883 4.77461C111.966 4.19083 110.883 3.89336 109.622 3.89336C108.38 3.89336 107.306 4.19037 106.388 4.77458L106.384 4.77692C105.465 5.34532 104.741 6.15757 104.215 7.22564C103.708 8.29218 103.449 9.54736 103.449 11C103.449 12.4527 103.708 13.7079 104.215 14.7744C104.741 15.8432 105.466 16.6656 106.388 17.2521C107.306 17.8364 108.38 18.1334 109.622 18.1334C110.882 18.1334 111.964 17.8363 112.881 17.2532C113.804 16.6489 114.519 15.8177 115.028 14.7501L115.03 14.7462C115.554 13.6796 115.822 12.4338 115.822 11C115.822 9.54781 115.554 8.29327 115.03 7.2272ZM113.062 17.5334C112.084 18.1556 110.938 18.4667 109.622 18.4667C108.324 18.4667 107.187 18.1556 106.209 17.5334C105.231 16.9111 104.467 16.04 103.915 14.92C103.382 13.8 103.115 12.4934 103.115 11C103.115 9.50669 103.382 8.20003 103.915 7.08003C104.467 5.96003 105.231 5.09781 106.209 4.49336C107.187 3.87114 108.324 3.56003 109.622 3.56003C110.938 3.56003 112.084 3.87114 113.062 4.49336C114.04 5.09781 114.795 5.96003 115.329 7.08003C115.88 8.20003 116.155 9.50669 116.155 11C116.155 12.4756 115.88 13.7734 115.329 14.8934C114.795 16.0134 114.04 16.8934 113.062 17.5334ZM129.194 3.77336V20.6534H126.581V3.77336H120.767V1.37336H134.981V3.77336H129.194ZM126.247 4.10669H120.434V1.04003H135.314V4.10669H129.527V20.9867H126.247V4.10669ZM141.621 20.9867H138.341V1.04003H141.621V9.33336H150.501V1.04003H153.781V20.9867H150.501V12.4267H141.621V20.9867ZM150.835 12.0934V20.6534H153.448V1.37336H150.835V9.66669H141.288V1.37336H138.675V20.6534H141.288V12.0934H150.835ZM117.702 16.2C118.502 14.6889 118.902 12.9556 118.902 11C118.902 9.04447 118.502 7.32003 117.702 5.82669C116.92 4.33336 115.835 3.16003 114.449 2.30669C113.062 1.45336 111.453 1.02669 109.622 1.02669C107.809 1.02669 106.209 1.45336 104.822 2.30669C103.435 3.16003 102.342 4.33336 101.542 5.82669C100.76 7.32003 100.369 9.04447 100.369 11C100.369 12.9734 100.76 14.7067 101.542 16.2C102.324 17.6934 103.409 18.8667 104.795 19.72C106.2 20.5556 107.8 20.9734 109.595 20.9734C111.427 20.9734 113.035 20.5556 114.422 19.72C115.827 18.8667 116.92 17.6934 117.702 16.2Z" fill="#09111F"/>
<path d="M3.37317 6.81336C3.41701 7.0983 3.45071 7.47783 3.47428 7.95194C3.48894 8.24691 3.49968 8.5785 3.5065 8.94669C3.54206 9.90669 3.55984 11.0623 3.55984 12.4134V20.6534H0.999837V1.37336H3.55984L10.1998 17.5867L16.8398 1.37336H19.4532V20.6534H16.8932V10.7067C16.8932 10.0667 16.9021 9.51558 16.9198 9.05336C16.9373 8.60044 16.9547 8.19872 16.9721 7.84822L16.9732 7.82669C16.9909 7.45336 17.0176 7.09781 17.0532 6.76003L11.4265 20.6534H8.97317L3.37317 6.81336Z" fill="#09111F"/>
<path fill-rule="evenodd" clip-rule="evenodd" d="M37.3559 20.6534L35.6225 15.8534H31.5692H27.5159L25.8092 20.6534H23.0892L30.1292 1.37336H33.0359L40.1025 20.6534H37.3559ZM31.3973 5.08281L31.4055 5.0547L31.4084 5.04474C31.4178 5.01206 31.4269 4.97938 31.4359 4.94669L31.5692 4.41336C31.587 4.55558 31.6314 4.73336 31.7025 4.94669L31.7287 5.01991L31.7313 5.02727L31.747 5.07235C31.7999 5.22602 31.8473 5.37969 31.8892 5.53336L34.8492 13.5867H28.3159L31.2492 5.53336C31.3038 5.38318 31.3532 5.23299 31.3973 5.08281Z" fill="#09111F"/>
<path d="M47.0844 9.08003L42.7911 1.37336H39.8577L46.3911 12.8134V20.6534H49.0044V12.8134L55.4844 1.37336H52.6311L48.3644 9.08003C48.24 9.29336 48.1422 9.46225 48.0711 9.58669L47.9111 9.96003L47.9079 9.96938C47.8719 10.0745 47.8107 10.2047 47.7244 10.36C47.6639 10.2289 47.6033 10.1034 47.5428 9.98369C47.4967 9.89248 47.4505 9.80459 47.4044 9.72003C47.3155 9.52447 47.2088 9.31114 47.0844 9.08003Z" fill="#09111F"/>
<path d="M71.5496 20.6534L61.6829 5.74152V20.6534H59.0696V1.37336H61.6829L71.5496 16.2852V1.37336H74.1629V20.6534H71.5496Z" fill="#09111F"/>
<path fill-rule="evenodd" clip-rule="evenodd" d="M95.9063 5.82669C95.124 4.33336 94.0396 3.16003 92.6529 2.30669C91.2663 1.45336 89.6574 1.02669 87.8263 1.02669C86.0129 1.02669 84.4129 1.45336 83.0263 2.30669C81.6396 3.16003 80.5463 4.33336 79.7463 5.82669C78.964 7.32003 78.5729 9.04447 78.5729 11C78.5729 12.9734 78.964 14.7067 79.7463 16.2C80.5285 17.6934 81.6129 18.8667 82.9996 19.72C84.404 20.5556 86.004 20.9734 87.7996 20.9734C89.6307 20.9734 91.2396 20.5556 92.6262 19.72C94.0307 18.8667 95.124 17.6934 95.9063 16.2C96.7063 14.6889 97.1062 12.9556 97.1062 11C97.1062 9.04447 96.7063 7.32003 95.9063 5.82669ZM91.2663 17.5334C92.244 16.8934 92.9996 16.0134 93.5329 14.8934C94.084 13.7734 94.3596 12.4756 94.3596 11C94.3596 9.50669 94.084 8.20003 93.5329 7.08003C92.9996 5.96003 92.244 5.09781 91.2663 4.49336C90.2885 3.87114 89.1418 3.56003 87.8263 3.56003C86.5285 3.56003 85.3907 3.87114 84.4129 4.49336C83.4352 5.09781 82.6707 5.96003 82.1196 7.08003C81.5863 8.20003 81.3196 9.50669 81.3196 11C81.3196 12.4934 81.5863 13.8 82.1196 14.92C82.6707 16.04 83.4352 16.9111 84.4129 17.5334C85.3907 18.1556 86.5285 18.4667 87.8263 18.4667C89.1418 18.4667 90.2885 18.1556 91.2663 17.5334Z" fill="#09111F"/>
<path fill-rule="evenodd" clip-rule="evenodd" d="M118.902 11C118.902 12.9556 118.502 14.6889 117.702 16.2C116.92 17.6934 115.827 18.8667 114.422 19.72C113.035 20.5556 111.427 20.9734 109.595 20.9734C107.8 20.9734 106.2 20.5556 104.795 19.72C103.409 18.8667 102.324 17.6934 101.542 16.2C100.76 14.7067 100.369 12.9734 100.369 11C100.369 9.04447 100.76 7.32003 101.542 5.82669C102.342 4.33336 103.435 3.16003 104.822 2.30669C106.209 1.45336 107.809 1.02669 109.622 1.02669C111.453 1.02669 113.062 1.45336 114.449 2.30669C115.835 3.16003 116.92 4.33336 117.702 5.82669C118.502 7.32003 118.902 9.04447 118.902 11ZM113.062 17.5334C112.084 18.1556 110.938 18.4667 109.622 18.4667C108.324 18.4667 107.187 18.1556 106.209 17.5334C105.231 16.9111 104.467 16.04 103.915 14.92C103.382 13.8 103.115 12.4934 103.115 11C103.115 9.50669 103.382 8.20003 103.915 7.08003C104.467 5.96003 105.231 5.09781 106.209 4.49336C107.187 3.87114 108.324 3.56003 109.622 3.56003C110.938 3.56003 112.084 3.87114 113.062 4.49336C114.04 5.09781 114.795 5.96003 115.329 7.08003C115.88 8.20003 116.155 9.50669 116.155 11C116.155 12.4756 115.88 13.7734 115.329 14.8934C114.795 16.0134 114.04 16.8934 113.062 17.5334Z" fill="#09111F"/>
<path d="M134.981 3.77336H129.194V20.6534H126.581V3.77336H120.767V1.37336H134.981V3.77336Z" fill="#09111F"/>
<path d="M150.835 12.0934H141.288V20.6534H138.675V1.37336H141.288V9.66669H150.835V1.37336H153.448V20.6534H150.835V12.0934Z" fill="#09111F"/>
</svg>
